<svg xmlns="http://www.w3.org/2000/svg" width="512" height="512" viewBox="0 0 512 512">
  <defs>
    <linearGradient id="g" x1="0" x2="1">
      <stop offset="0" stop-color="#FF6A00"/>
      <stop offset="1" stop-color="#FF9A3D"/>
    </linearGradient>
  </defs>
  <rect x="0" y="0" width="512" height="512" rx="96" fill="#1E1E1E"/>
  <!-- Engrenagem simplificada -->
  <g transform="translate(256 256)">
    <circle r="120" fill="none" stroke="url(#g)" stroke-width="26"/>
    <circle r="54" fill="#1E1E1E" stroke="url(#g)" stroke-width="20"/>
    <!-- dentes -->
    <g fill="url(#g)">
      <rect x="-16" y="-182" width="32" height="44" rx="10"/>
      <rect x="-16" y="138" width="32" height="44" rx="10"/>
      <rect x="138" y="-16" width="44" height="32" rx="10"/>
      <rect x="-182" y="-16" width="44" height="32" rx="10"/>
      <rect x="106" y="-134" width="38" height="34" rx="10" transform="rotate(45)"/>
      <rect x="106" y="100" width="38" height="34" rx="10" transform="rotate(45)"/>
      <rect x="-144" y="-134" width="38" height="34" rx="10" transform="rotate(-45)"/>
      <rect x="-144" y="100" width="38" height="34" rx="10" transform="rotate(-45)"/>
    </g>
    <!-- Raio/torque -->
    <path d="M-10 -44 L40 -44 L14 10 L58 10 L-6 96 L16 28 L-36 28 Z"
          fill="#FF6A00"/>
  </g>
</svg>
